<?xml version="1.0" standalone="no"?>
<!DOCTYPE svg PUBLIC "-//W3C//DTD SVG 1.1//EN" "http://www.w3.org/Graphics/SVG/1.1/DTD/svg11.dtd">
<!--Generator: Xara Designer (www.xara.com), SVG filter version: 6.3.0.4-->
<svg stroke-width="0.501" stroke-linejoin="bevel" fill-rule="evenodd" xmlns:xlink="http://www.w3.org/1999/xlink" xmlns="http://www.w3.org/2000/svg" version="1.1" overflow="visible" width="60pt" height="90pt" viewBox="0 0 60 90">
 <defs>
	</defs>
 <g id="Document" fill="none" stroke="black" font-family="Times New Roman" font-size="16" transform="scale(1 -1)">
  <g id="Spread" transform="translate(0 -90)">
   <g id="Layer 1">
    <g id="Group" font-size="27.546" font-family="Open Sans Condensed" stroke-linecap="round" stroke="none">
     <path d="M -0.001,75 L -0.001,14.999 L 60,14.999 L 60,75 L -0.001,75 Z" stroke-width="0.475" stroke-linejoin="miter" marker-start="none" marker-end="none" stroke-miterlimit="79.8403193612775"/>
     <g id="Group_1" fill="#ffffff">
      <path d="M 11.877,16.688 L 12.834,25.064 C 6.723,30.05 2.821,37.64 2.821,46.134 C 2.821,61.136 14.998,73.314 30,73.314 C 45,73.314 57.178,61.136 57.178,46.134 C 57.178,31.134 45,18.954 30,18.954 C 26.299,18.954 22.771,19.693 19.557,21.034 L 11.877,16.688 Z M 48.595,46.134 C 48.595,56.398 40.266,64.733 30,64.733 C 19.734,64.733 11.403,56.398 11.403,46.134 C 11.403,35.869 19.734,27.534 30,27.534 C 40.266,27.534 48.595,35.869 48.595,46.134 Z" stroke-width="25.773" stroke-linejoin="miter" marker-start="none" marker-end="none" stroke-miterlimit="79.8403193612775"/>
      <text xml:space="preserve" transform="translate(4.168 36.464) scale(1 -1)" stroke-width="22.038" stroke-linejoin="round" stroke-miterlimit="79.8403193612775"><tspan x="22.094" y="0">!</tspan></text>
     </g>
    </g>
   </g>
  </g>
 </g>
</svg>
